<?xml version="1.0" encoding="utf-8"?>
<!-- Generator: Adobe Illustrator 26.3.1, SVG Export Plug-In . SVG Version: 6.00 Build 0)  -->
<svg version="1.1" id="Layer_1" xmlns="http://www.w3.org/2000/svg" xmlns:xlink="http://www.w3.org/1999/xlink" x="0px" y="0px"
	 viewBox="0 0 1197.83 1322.02" style="enable-background:new 0 0 1197.83 1322.02;" xml:space="preserve">
<style type="text/css">
	.st0{fill:#FFFFFF;}
</style>
<path class="st0" d="M-1239.71,0v1322.02h3840V0H-1239.71z M876.94,807.29c13.93,21.93,80.6,101.54,78.22,160.21
	c-0.65,16.09-13.62,206.66-26.67,197.33c-11.9-8.51-701.23,15.14-701.33,0.3C224.18,724.39,340.1,790,466.27,671.89
	c24.82-23.24,18.34,7.2-16-10.88C172.94,515.05,227.61,381.72,227.11,181.25c0,0,716.27-6.31,716.5,0
	c13.36,363.14-10.67,317.8-240,475.14c-18.43,12.65,60.02,48.67,81.33,65.33C825.4,753.36,873.48,801.84,876.94,807.29z"/>
<path d="M73.14,0v27.54v82.63c0,45.31,37.32,82.63,82.63,82.63h55.08v185.05c0,82.85,41.25,160.63,110.17,206.57l115.33,76.6
	l-115.33,76.6c-68.91,45.96-110.17,123.74-110.17,206.57v185.05h-55.08c-45.31,0-82.63,37.32-82.63,82.63v82.63v27.54h27.54h991.52
	h27.54v-27.54v-82.63c0-45.31-37.32-82.63-82.63-82.63h-55.08V944.18c0-82.83-41.25-160.6-110.17-206.57l-115.33-76.6l115.33-76.6
	c68.92-45.94,110.17-123.71,110.17-206.57V192.79h55.08c45.31,0,82.63-37.32,82.63-82.63V27.54V0h-27.54H100.69H73.14z
	 M128.23,55.08h936.43v55.08c0,15.56-11.98,27.54-27.54,27.54H155.77c-15.56,0-27.54-11.98-27.54-27.54V55.08z M265.94,192.79
	h661.01v185.05c0,64.5-32.43,124.34-86.07,160.09l-149.76,99.84l-34.43,23.24l34.43,23.24l149.76,99.84
	c53.65,35.78,86.07,95.62,86.07,160.09v185.05H265.94V944.18c0-64.47,32.42-124.31,86.07-160.09l149.76-99.84l34.43-23.24
	l-34.43-23.24l-149.76-99.84c-53.64-35.75-86.07-95.59-86.07-160.09V192.79z M155.77,1184.31h881.35
	c15.56,0,27.54,11.98,27.54,27.54v55.08H128.23v-55.08C128.23,1196.29,140.21,1184.31,155.77,1184.31z"/>
</svg>
